<?xml version="1.0" encoding="UTF-8" standalone="no"?>
<!-- Created with Inkscape (http://www.inkscape.org/) -->
<svg
   xmlns:dc="http://purl.org/dc/elements/1.1/"
   xmlns:cc="http://creativecommons.org/ns#"
   xmlns:rdf="http://www.w3.org/1999/02/22-rdf-syntax-ns#"
   xmlns:svg="http://www.w3.org/2000/svg"
   xmlns="http://www.w3.org/2000/svg"
   xmlns:sodipodi="http://sodipodi.sourceforge.net/DTD/sodipodi-0.dtd"
   xmlns:inkscape="http://www.inkscape.org/namespaces/inkscape"
   width="250"
   height="355.36938"
   id="svg2"
   sodipodi:version="0.32"
   inkscape:version="0.46"
   sodipodi:docbase="/home/partage/documents/nojhan/geekscottes"
   sodipodi:docname="rouge.svg"
   inkscape:output_extension="org.inkscape.output.svg.inkscape"
   version="1.0"
   inkscape:export-filename="/home/partage/documents/nojhan/geekscottes/geekscottes_107.png"
   inkscape:export-xdpi="75"
   inkscape:export-ydpi="75"
   sodipodi:modified="TRUE">
  <defs
     id="defs4">
    <inkscape:perspective
       sodipodi:type="inkscape:persp3d"
       inkscape:vp_x="0 : 130 : 1"
       inkscape:vp_y="0 : 1000 : 0"
       inkscape:vp_z="410 : 130 : 1"
       inkscape:persp3d-origin="205 : 86.666667 : 1"
       id="perspective59" />
    <linearGradient
       id="linearGradient15246">
      <stop
         style="stop-color:#ebe5ff;stop-opacity:1;"
         offset="0"
         id="stop15248" />
      <stop
         style="stop-color:#d2daff;stop-opacity:1;"
         offset="1"
         id="stop15250" />
    </linearGradient>
  </defs>
  <sodipodi:namedview
     id="base"
     pagecolor="#ffffff"
     bordercolor="#666666"
     borderopacity="1.0"
     inkscape:pageopacity="0.0"
     inkscape:pageshadow="2"
     inkscape:zoom="0.70710678"
     inkscape:cx="202.98954"
     inkscape:cy="37.279084"
     inkscape:document-units="px"
     inkscape:current-layer="layer1"
     showguides="true"
     inkscape:guide-bbox="true"
     inkscape:window-width="1279"
     inkscape:window-height="821"
     inkscape:window-x="51"
     inkscape:window-y="25"
     width="410px"
     height="260px"
     showgrid="false"
     borderlayer="true" />
  <metadata
     id="metadata7">
    <rdf:RDF>
      <cc:Work
         rdf:about="">
        <dc:format>image/svg+xml</dc:format>
        <dc:type
           rdf:resource="http://purl.org/dc/dcmitype/StillImage" />
        <dc:title>Compter en binaire</dc:title>
        <dc:date>2008-06-24</dc:date>
        <dc:creator>
          <cc:Agent>
            <dc:title>nojhan@gmail.com (Nojhan)</dc:title>
          </cc:Agent>
        </dc:creator>
        <dc:relation />
        <dc:source />
        <dc:language>fr-FR</dc:language>
        <cc:license
           rdf:resource="http://creativecommons.org/licenses/by-sa/3.0/" />
        <dc:subject>
          <rdf:Bag>
            <rdf:li>binaire</rdf:li>
            <rdf:li>calcul</rdf:li>
          </rdf:Bag>
        </dc:subject>
        <dc:description>J'ai hésité avec « 10 + 01 », mais c'était moins drôle, bien que plus juste.</dc:description>
      </cc:Work>
      <cc:License
         rdf:about="http://creativecommons.org/licenses/by-sa/3.0/">
        <cc:permits
           rdf:resource="http://creativecommons.org/ns#Reproduction" />
        <cc:permits
           rdf:resource="http://creativecommons.org/ns#Distribution" />
        <cc:requires
           rdf:resource="http://creativecommons.org/ns#Notice" />
        <cc:requires
           rdf:resource="http://creativecommons.org/ns#Attribution" />
        <cc:permits
           rdf:resource="http://creativecommons.org/ns#DerivativeWorks" />
        <cc:requires
           rdf:resource="http://creativecommons.org/ns#ShareAlike" />
      </cc:License>
    </rdf:RDF>
  </metadata>
  <g
     inkscape:label="Calque 1"
     inkscape:groupmode="layer"
     id="layer1"
     transform="translate(-444.70314,-472.89777)">
    <g
       id="g3785"
       transform="matrix(-0.6758814,0,0,0.6758833,1055.4746,303.36267)">
      <g
         transform="matrix(-3.5803884,0,0,3.5803884,1971.9292,-717.51658)"
         id="g3594">
        <path
           style="fill:#347732;fill-opacity:1;fill-rule:evenodd;stroke:#000000;stroke-width:3.23089433;stroke-linecap:butt;stroke-linejoin:miter;stroke-miterlimit:4;stroke-dasharray:none;stroke-opacity:1"
           d="M 383.87412,272.07799 C 383.9083,272.06724 383.97883,272.08919 384.06782,272.14255 C 388.87477,274.88746 397.08135,277.96807 396.12028,290.04906 C 395.16075,302.53166 387.26169,301.70433 379.03162,301.47737 L 380.83949,303.60807 C 386.62905,305.24325 392.18052,307.20083 396.95964,304.14613 L 392.74129,307.4175 L 399.04731,304.18918 L 396.07723,308.23535 L 400.05884,304.61961 C 396.47437,312.1347 387.87094,318.28983 377.63267,316.34923 C 378.11565,319.85133 377.94682,323.69188 377.43898,327.58384 C 378.323,328.45932 379.13316,329.38426 379.80642,330.42476 C 383.30888,335.83781 385.06575,341.92059 385.89721,348.52498 C 386.90077,350.52152 387.59746,352.05461 387.59746,352.05461 L 390.09406,372.62987 L 390.26624,387.35108 C 391.42001,396.02417 391.72453,406.35194 391.8804,414.51215 C 367.19975,414.90866 349.43512,414.60814 328.99242,414.57671 L 329.01395,414.83498 L 305.61928,415.69586 L 305.53319,414.70585 C 303.67475,414.72878 301.92047,414.73924 299.98045,414.77041 C 300.6438,412.62635 299.68534,374.10392 302.19725,357.65039 C 302.44142,353.61995 302.94758,350.13409 303.89749,348.30975 C 305.31375,345.58978 305.80727,343.12127 307.87911,341.40111 C 309.29648,338.77062 310.95343,336.38308 312.85075,334.60009 C 316.21284,331.4406 320.00826,329.59002 323.95623,327.39013 L 324.36514,324.39854 L 323.63339,325.19488 L 323.67643,323.55918 C 323.57725,323.56102 323.47528,323.55887 323.37512,323.55918 L 322.36358,325.79749 L 321.82553,323.51614 C 316.52721,323.15032 309.93202,320.90046 301.5731,317.44686 L 307.5778,318.41537 L 300.4109,313.48678 L 307.4702,315.23008 L 304.84448,311.67892 C 307.56555,313.84091 311.28772,315.09736 316.29431,313.70201 C 318.94268,311.45504 322.41159,309.13737 326.86172,307.65425 L 327.95936,306.27683 C 318.15759,308.20173 308.29542,316.55893 302.52008,302.12303 C 297.98848,290.88299 304.88842,285.476 308.6539,281.41864 C 309.75719,280.17807 306.29887,289.36203 308.46021,293.57871 C 310.94263,298.04252 315.08235,299.28575 318.53262,295.94615 C 321.83917,292.59613 325.10573,288.67936 329.18612,286.86377 L 331.83335,285.07742 L 334.41604,284.77611 L 332.39294,284.17349 L 334.6743,283.3126 L 330.88638,283.11889 L 334.43754,282.27953 L 332.22077,282.17192 L 337.42914,280.47167 L 336.84804,279.37403 L 339.38766,278.92207 L 337.79502,278.06118 L 342.89579,278.55619 L 341.90576,277.6953 L 345.24172,278.62076 L 344.01494,277.35094 L 348.49157,277.84596 L 344.61758,275.95199 L 348.83593,276.66224 L 346.79131,275.28481 L 349.91203,275.95199 L 349.76137,274.72523 L 352.60232,277.48007 L 352.1073,275.41394 L 354.88368,277.24333 L 353.91518,275.77981 L 355.70152,276.74833 L 353.67843,274.1226 L 357.53091,274.59611 L 356.41175,273.15411 L 359.53248,275.22024 L 359.87684,274.03651 L 361.51253,276.29636 L 362.24428,276.12417 L 362.6532,277.82443 L 363.7293,277.8029 L 363.64323,279.37403 L 364.9776,279.0512 L 363.7293,281.05276 L 365.64479,280.92364 L 364.41802,282.62389 L 366.9146,282.64541 L 365.77392,283.44173 C 366.95637,283.54757 368.14122,283.81199 369.30358,284.19502 L 369.45423,284.19502 L 369.41118,284.21655 C 372.68911,285.31587 375.86729,287.29426 378.98858,288.95142 C 383.27998,291.10574 386.84412,288.68052 387.87726,283.67848 C 388.62795,279.30018 383.3615,272.23942 383.87412,272.07799 z"
           id="path8170" />
        <path
           style="fill:#800000;fill-opacity:1;fill-rule:evenodd;stroke:#000000;stroke-width:0.75952291px;stroke-linecap:butt;stroke-linejoin:miter;stroke-opacity:1"
           d="M 367.41817,352.06474 C 367.41817,352.06474 377.52761,337.98915 378.73657,338.1981 C 381.51019,338.67747 387.60743,352.06474 387.60743,352.06474 L 390.09226,372.62964 L 390.43803,403.02405 L 369.2818,401.4205 L 371.45602,374.00061 L 367.41817,352.06474 z"
           id="path6554"
           sodipodi:nodetypes="cscccccc" />
        <path
           style="fill:#aa0000;fill-opacity:1;fill-rule:evenodd;stroke:#000000;stroke-width:0.7102111px;stroke-linecap:butt;stroke-linejoin:miter;stroke-opacity:1"
           d="M 348.0148,320.82046 C 346.16574,322.02257 339.71386,323.5112 337.17383,323.34413 C 334.89808,323.62703 328.76119,324.82222 326.95295,325.64292 C 321.94719,328.75554 317.05095,330.63764 312.84537,334.5898 C 308.22506,338.93167 305.07029,346.92833 303.17431,353.01853 C 299.44501,364.99749 300.7159,412.38845 299.97826,414.77263 C 335.41,414.20341 356.44916,415.08747 391.8809,414.51823 C 391.69708,404.8942 391.31713,392.21713 389.56661,382.84704 C 388.63514,377.86116 387.93564,369.61114 386.55611,364.75617 C 386.62743,360.99818 386.60028,357.52616 386.37749,353.78273 C 385.8623,345.12595 384.22955,337.24533 379.8151,330.42284 C 378.01974,327.64811 375.18178,325.68978 372.86514,323.32326 C 369.30301,323.23914 365.6509,323.71935 362.27197,322.48644 C 355.9976,321.03563 354.42435,321.7796 348.0148,320.82046 z"
           id="path6556"
           sodipodi:nodetypes="cccssccscssccc" />
        <path
           style="fill:#800000;fill-opacity:1;fill-rule:evenodd;stroke:#000000;stroke-width:0.79491431px;stroke-linecap:butt;stroke-linejoin:miter;stroke-opacity:1"
           d="M 329.3299,353.54097 C 329.96059,347.42879 328.48515,339.06627 319.88459,338.93506 C 305.9256,338.72835 306.63707,343.04231 303.89557,348.30746 C 300.53627,354.75912 302.66765,381.71648 302.66765,381.71648 L 305.62543,415.68787 L 329.01015,414.83517 L 327.28315,382.85342 C 327.28315,382.85342 328.50914,361.49493 329.3299,353.54097 z"
           id="path6558"
           sodipodi:nodetypes="cssccccs" />
        <g
           transform="matrix(1.4066714,0,0,1.4066714,266.81948,174.77846)"
           id="g10831">
          <path
             style="fill-rule:evenodd;stroke:#000000;stroke-width:0.62853551;stroke-miterlimit:4;stroke-dasharray:none"
             d="M 66.76315,77.720812 C 59.699711,80.476889 60.705587,92.885337 69.023156,92.482163 C 72.129172,92.318008 72.220459,90.667432 74.651894,90.295171 C 81.8686,89.05783 91.043328,93.443886 91.926706,81.951972 C 92.609923,73.363623 86.768814,71.169062 83.351561,69.217722 C 82.339301,68.610859 86.633223,74.096158 86.063975,77.41618 C 85.329516,80.972133 82.798338,82.697839 79.747598,81.166339 C 75.613442,78.971397 71.289002,75.985549 66.76315,77.720812 z"
             id="path6562"
             sodipodi:nodetypes="csssssss" />
          <path
             style="font-size:12px;fill:#b9924d;fill-opacity:1;fill-rule:evenodd;stroke:#000000;stroke-width:0.31731439;stroke-miterlimit:4;stroke-dasharray:none"
             d="M 76.071838,95.827889 L 78.279701,97.831548 L 77.260885,94.525812 L 78.14744,94.893887 L 77.959853,93.473835 L 79.613398,95.094732 L 79.073585,92.195642 L 80.169558,94.099745 L 80.137484,91.971521 L 81.299647,91.868488 L 77.998262,87.971698 L 79.506356,88.324512 L 77.13181,85.330051 L 78.800347,86.356618 L 77.03551,83.928918 L 78.928569,84.902172 L 77.377822,83.372816 L 79.784142,83.511727 L 77.45255,81.693735 L 73.880416,80.645753 L 76.51137,80.731169 L 72.99273,79.907818 L 73.67702,78.795541 L 70.928537,79.212693 L 72.96047,77.779481 L 69.790942,77.635454 L 71.158263,76.680135 L 69.382016,76.660291 L 70.257652,75.455215 L 68.897993,75.557586 L 69.776005,74.13068 L 68.833082,74.355227 L 68.897856,73.232541 L 68.127054,73.250035 L 67.840126,72.045193 L 67.316284,72.16994 L 66.158572,70.563408 L 65.914148,71.396586 L 63.683792,69.934781 L 64.48212,70.962641 L 61.742935,70.6184 L 63.185033,72.489342 L 61.912651,71.795956 L 62.606174,72.848614 L 60.635441,71.546557 L 60.984739,73.013321 L 58.968899,71.057589 L 59.06376,71.920839 L 56.84842,71.451853 L 58.300311,72.434781 L 55.301689,71.930905 L 58.055886,73.267959 L 54.872708,72.918901 L 55.750822,73.816888 L 53.380846,73.163463 L 54.079339,73.772099 L 50.452105,73.41792 L 51.594659,74.031667 L 49.788487,74.351085 L 50.197624,75.139332 L 46.500646,76.35187 L 48.067211,76.421648 L 45.552607,77.020478 L 48.241892,77.155178 L 46.615492,77.763912 L 48.047363,78.197896 L 46.216245,78.412539 L 43.926227,79.954438 L 46.440826,79.355608 L 45.018998,80.358468 L 46.196401,80.188791 L 44.145804,81.341382 L 43.771698,82.094892 L 45.47803,81.356256 L 46.785189,81.266546 L 45.652716,82.089785 L 46.091768,82.538781 L 43.726865,83.766228 L 45.448135,84.020743 L 44.180967,85.208189 L 45.016721,86.393201 L 43.911886,92.911917 L 42.295371,94.95753 L 43.946873,94.453537 L 43.208375,95.072235 L 43.991838,95.107241 L 41.467153,96.594158 L 43.1935,96.404466 L 40.594111,97.577037 L 39.511416,98.609998 L 41.452279,97.926379 L 39.790833,99.318431 L 41.177929,99.098824 L 39.077431,100.04187 L 38.179327,100.92017 L 39.805844,100.31125 L 38.718185,101.78824 L 39.770989,101.09468 L 39.416825,102.39683 L 40.728923,101.86295 L 39.042704,105.47543 L 39.491832,107.36141 L 40.429795,105.25582 L 40.384967,106.92715 L 40.913783,106.35837 L 40.544593,108.99279 L 40.868975,110.35493 L 41.387862,108.34914 L 42.13132,109.61148 L 42.400695,108.88306 L 42.695123,110.58431 L 43.04447,109.72615 L 43.762978,110.88372 L 44.092158,109.47664 L 44.606066,110.23995 L 44.85312,109.18472 L 45.643991,110.87862 L 45.713735,109.3119 L 46.666734,110.52435 L 46.217601,108.63836 L 46.836279,109.37671 L 46.871168,108.59344 L 48.418032,110.43943 L 47.859164,109.02242 L 48.946848,109.87065 L 48.20339,108.60831 L 49.815067,109.33176 L 49.540581,108.17916 L 50.820361,109.36913 L 50.453584,108.29387 L 51.54635,108.6979 L 51.616128,107.13133"
             id="path6564"
             sodipodi:nodetypes="cccccccccccccccccccccccccccccccccccccccccccccccccccccccccccccccccccccccccccccccccccccccccccccccccccccccccccccccccccccccccccccccccccc" />
          <path
             style="font-size:12px;fill:#a78241;fill-opacity:1;fill-rule:evenodd;stroke:#000000;stroke-width:0.31731439;stroke-miterlimit:4;stroke-dasharray:none"
             d="M 43.911886,92.911917 L 42.295371,94.95753 L 43.946873,94.453537 L 43.208375,95.072235 L 43.991838,95.107241 L 41.467153,96.594158 L 43.1935,96.404466 L 40.594111,97.577037 L 39.511416,98.609998 L 41.452279,97.926379 L 39.790833,99.318431 L 41.177929,99.098824 L 39.077431,100.04187 L 38.179327,100.92017 L 39.805844,100.31125 L 38.718185,101.78824 L 39.770989,101.09468 L 39.416825,102.39683 L 40.728923,101.86295 L 39.042704,105.47543 L 39.491832,107.36141 L 40.429795,105.25582 L 40.384967,106.92715 L 40.913783,106.35837 L 40.544593,108.99279 L 40.868975,110.35493 L 41.387862,108.34914 L 42.13132,109.61148 L 42.400695,108.88306 L 42.695123,110.58431 L 43.04447,109.72615 L 43.762978,110.88372 L 44.092158,109.47664 L 44.606066,110.23995 L 44.85312,109.18472 L 45.643991,110.87862 L 45.713735,109.3119 L 46.666734,110.52435 L 46.217601,108.63836 L 46.836279,109.37671 L 46.871168,108.59344 L 48.418032,110.43943 L 47.859164,109.02242 L 48.946848,109.87065 L 48.20339,108.60831 L 49.815067,109.33176 L 49.540581,108.17916 L 50.820361,109.36913 L 50.453584,108.29387 L 51.54635,108.6979 L 51.616128,107.13133"
             id="path6566"
             sodipodi:nodetypes="ccccccccccccccccccccccccccccccccccccccccccccccccccc" />
          <path
             style="fill:#b9924d;fill-opacity:1;fill-rule:evenodd;stroke:#000000;stroke-width:0.63462955;stroke-miterlimit:4;stroke-dasharray:none"
             d="M 49.623573,93.322391 C 42.930196,93.40813 38.250961,96.136633 35.164445,98.755327 C 31.605271,99.747294 28.965005,98.854844 27.030595,97.31788 L 28.893679,99.849435 L 23.874546,98.605915 L 28.972716,102.11766 L 24.709183,101.42896 C 39.553145,107.56193 46.598758,108.31636 50.891564,96.347476"
             id="path6568"
             sodipodi:nodetypes="cccccccc" />
          <path
             style="fill:#7c5521;fill-opacity:1;fill-rule:evenodd;stroke:#000000;stroke-width:0.31731474;stroke-miterlimit:4;stroke-dasharray:none"
             d="M 49.136912,97.15258 C 43.402478,99.997849 40.620985,103.73233 32.025826,103.66218 C 38.048872,105.91448 43.77232,104.45696 48.802821,99.349873 C 48.914152,98.617548 49.025606,97.885047 49.136912,97.15258 z"
             id="path6570"
             sodipodi:nodetypes="cccc" />
          <path
             style="fill:#b9924d;fill-opacity:1;fill-rule:evenodd;stroke:#000000;stroke-width:0.63462955;stroke-miterlimit:4;stroke-dasharray:none"
             d="M 73.920666,90.518157 C 80.503541,90.002129 87.182886,95.37316 92.517848,91.963178 L 89.522453,94.299542 L 93.999673,92.004535 L 91.890729,94.875982 L 94.715165,92.297416 C 91.770502,98.471088 84.068968,103.36125 75.305182,99.561254"
             id="path6572"
             sodipodi:nodetypes="ccccccc" />
          <path
             style="fill:#7c5521;fill-opacity:1;fill-rule:evenodd;stroke:#000000;stroke-width:0.63462955;stroke-miterlimit:4;stroke-dasharray:none"
             d="M 77.112251,95.965894 C 75.890117,91.291324 73.370538,86.217698 69.098604,82.573299 C 65.745386,79.585232 60.603867,79.331495 56.373147,81.008133 C 50.056388,83.582925 48.282045,86.020422 49.2849,93.878375 C 50.596338,106.57029 57.83504,108.604 61.614267,116.61305 C 64.069771,121.38978 66.78293,128.99126 71.841133,128.1279 C 76.866083,127.27347 77.207704,117.5426 78.025822,111.98442 C 78.810658,106.6531 78.269733,101.23037 77.112251,95.965894 z"
             id="path6574"
             sodipodi:nodetypes="csssssss" />
          <path
             inkscape:transform-center-y="-2.8214818"
             inkscape:transform-center-x="-9.9447845"
             style="fill:#7c5521;fill-opacity:1;fill-rule:evenodd;stroke:#000000;stroke-width:0.63462955;stroke-miterlimit:4;stroke-dasharray:none"
             d="M 64.117836,85.156967 C 65.685841,83.464598 70.654779,83.712636 74.322876,84.749494 C 75.19531,85.332284 75.422589,87.418299 74.994382,88.789948 C 72.827616,88.028448 70.370281,87.888157 68.243452,88.659151"
             id="path6576"
             sodipodi:nodetypes="cccc" />
          <path
             style="fill:#7c5521;fill-opacity:1;fill-rule:evenodd;stroke:#000000;stroke-width:0.63462955;stroke-miterlimit:4;stroke-dasharray:none"
             d="M 76.81346,116.25011 C 77.749211,117.63989 79.662686,119.2824 79.569994,120.96368 C 78.493403,122.34686 77.850284,123.93189 77.035922,125.27491 C 74.848979,124.73503 69.536858,124.80735 67.721686,125.82023"
             id="path6578"
             sodipodi:nodetypes="cccc" />
          <path
             style="fill:none;fill-rule:evenodd;stroke:#000000;stroke-width:0.31731474;stroke-miterlimit:4;stroke-dasharray:none"
             d="M 71.482337,124.52796 C 70.375049,123.15859 67.965391,123.33515 68.76462,124.36696"
             id="path6580"
             sodipodi:nodetypes="cc" />
          <path
             style="fill:none;fill-rule:evenodd;stroke:#000000;stroke-width:0.31731474;stroke-miterlimit:4;stroke-dasharray:none"
             d="M 75.24146,123.95243 C 75.401189,122.90198 76.905555,121.8382 77.671413,122.23387"
             id="path6582"
             sodipodi:nodetypes="cc" />
          <path
             style="fill:none;fill-rule:evenodd;stroke:#000000;stroke-width:0.31731474;stroke-miterlimit:4;stroke-dasharray:none"
             d="M 50.781403,97.289356 L 50.920622,99.950646 L 51.839231,98.066279 L 51.694906,102.38051 L 52.281891,99.205621 L 53.659543,103.82344 L 53.44022,100.63796 L 56.177913,106.25467 L 55.494446,103.54251 L 58.093066,106.49791 L 58.254826,105.8025 L 59.574759,106.53944 L 59.323396,105.77309 L 60.845192,106.07655"
             id="path6584" />
          <path
             style="fill:#7c5521;fill-opacity:1;fill-rule:evenodd;stroke:#000000;stroke-width:0.31731474;stroke-miterlimit:4;stroke-dasharray:none"
             d="M 91.153597,95.317183 C 86.186322,96.748324 82.620475,97.696682 78.129148,96.104143 L 81.464545,97.739478 L 77.987437,96.930521 L 79.82096,98.39353 L 77.825677,97.625939 L 76.474973,97.564508 L 76.877505,98.441751 C 85.030584,101.17278 86.796212,98.979919 91.153597,95.317183 z"
             id="path6586"
             sodipodi:nodetypes="ccccccccc" />
          <path
             style="font-size:12px;fill:#b9924d;fill-opacity:1;fill-rule:evenodd;stroke:none;stroke-width:0.33032498;stroke-miterlimit:4;stroke-dasharray:none"
             d="M 62.318234,118.32532 C 62.915575,119.30694 62.944368,120.53133 63.273269,121.93477 C 63.4602,122.73254 64.32038,123.51818 65.267166,124.44629 L 66.528262,123.04595 L 66.944156,119.62902 L 66.933444,120.43551 L 68.245254,118.49095 L 68.425834,119.67041 L 69.737796,117.72583 L 70.644454,118.39186 L 70.314069,115.35742 L 71.461504,117.59611 L 69.530277,111.98997 L 70.507854,112.24272 C 69.621941,110.54522 68.332384,109.71422 66.911583,108.90346 C 68.174927,108.97826 69.45835,109.18419 70.641438,108.73482 C 68.69729,106.84171 65.30085,105.97563 63.356693,104.0825 L 66.05813,104.20553 L 63.509121,102.44965 L 66.301527,102.29035 C 61.683325,101.76782 55.584836,99.45999 52.783951,95.037747 L 50.008177,93.115455 L 46.681031,94.161454 L 48.303156,95.120216 L 46.064483,96.267798 C 46.064483,96.267798 47.697502,96.420202 48.412289,97.584979 L 48.561545,100.31182 L 49.912254,100.37326 L 48.014682,103.7488 L 49.820022,102.39933 C 48.975402,104.18295 47.646583,106.30894 48.585844,108.3559 L 49.7961,107.49996 L 49.542113,110.22144 L 51.046479,106.90611 L 50.368672,110.36328 L 51.519956,107.37023 L 51.718147,112.16863 L 52.204808,108.33845 C 52.888687,110.4693 52.806355,112.85149 54.256566,114.73083 L 55.106871,109.7719 C 55.972152,111.9196 55.476154,114.81234 57.702877,116.21514 L 57.504842,111.41671 L 58.388958,115.43945 L 58.531898,112.86915 L 59.781024,114.01906 L 62.318234,118.32532 z"
             id="path6588"
             sodipodi:nodetypes="cccccccccccccccccccccccccccccccccccccccccccccc" />
          <path
             style="fill:#7c5521;fill-opacity:1;fill-rule:evenodd;stroke:#000000;stroke-width:0.63462955;stroke-miterlimit:4;stroke-dasharray:none"
             d="M 71.390233,92.895912 C 73.370151,93.682788 77.802494,96.074125 78.498334,99.117404 C 79.743182,104.56148 78.35299,111.51438 76.88033,117.44714 C 75.450585,122.90336 72.428991,122.29643 71.297375,121.18733"
             id="path6590"
             sodipodi:nodetypes="csss" />
          <path
             style="fill-rule:evenodd;stroke:#000000;stroke-width:0.62853551;stroke-miterlimit:4;stroke-dasharray:none"
             d="M 48.117068,78.966212 C 55.681548,79.482705 58.434266,91.623711 50.377074,93.727558 C 47.364219,94.500221 46.783275,92.952559 44.351844,93.32482 C 37.095511,94.303346 29.653329,101.2335 25.372122,90.532296 C 22.150627,82.541773 27.06758,78.700117 29.744469,75.815749 C 30.528789,74.933821 28.072722,81.452566 29.609216,84.450194 C 31.373948,87.623512 34.305494,88.512862 36.758282,86.138754 C 40.046352,82.807447 43.279357,78.664533 48.117068,78.966212 z"
             id="path6592"
             sodipodi:nodetypes="csssssss" />
          <path
             inkscape:transform-center-y="-2.3601674"
             inkscape:transform-center-x="5.7321595"
             style="fill:#7c5521;fill-opacity:1;fill-rule:evenodd;stroke:#000000;stroke-width:0.63462985;stroke-miterlimit:4;stroke-dasharray:none"
             d="M 62.886737,85.392598 C 58.769909,84.585477 55.027858,87.077755 52.741859,88.593921 C 51.881077,90.470538 53.04302,91.437916 54.560052,92.639027 C 56.642287,91.226451 57.569215,89.868237 61.216557,89.790067"
             id="path6594"
             sodipodi:nodetypes="cccc" />
          <path
             style="fill:#b9924d;fill-opacity:1;fill-rule:evenodd;stroke:#000000;stroke-width:0.31731474;stroke-miterlimit:4;stroke-dasharray:none"
             d="M 52.015537,78.946373 L 52.990647,80.180091 L 55.122597,79.603921 L 53.85418,81.04693 L 58.036669,81.780204 L 56.594972,82.000927 L 59.678868,82.870077 L 56.675243,82.525254 L 60.192472,83.596286 C 62.66832,84.290304 64.629476,86.001998 66.408652,88.278009 L 64.431461,82.28926 L 65.356254,82.259551 L 63.170443,80.310791 L 64.694432,80.064692 L 62.79945,79.181251 L 63.709986,78.317644 L 62.546433,77.359773"
             id="path6596"
             sodipodi:nodetypes="ccccccccccccccccc" />
          <path
             style="fill:#ffffff;fill-opacity:1;fill-rule:nonzero;stroke:#000000;stroke-width:0.82245046;stroke-linecap:round;stroke-linejoin:round;marker:none;marker-start:none;marker-mid:none;marker-end:none;stroke-miterlimit:4;stroke-dashoffset:0;stroke-opacity:1;visibility:visible;display:block"
             d="M 74.403288,88.867203 L 66.902716,90.238377 C 67.895652,91.444629 68.694421,92.786339 71.320268,92.26942 C 73.922595,91.757138 73.474916,90.634276 74.403288,88.867203 z"
             id="path6598"
             sodipodi:nodetypes="ccsc" />
          <path
             style="fill:#ffffff;fill-opacity:1;fill-rule:nonzero;stroke:#000000;stroke-width:0.82245046;stroke-linecap:round;stroke-linejoin:round;marker:none;marker-start:none;marker-mid:none;marker-end:none;stroke-miterlimit:4;stroke-dashoffset:0;stroke-opacity:1;visibility:visible;display:block"
             d="M 65.034687,90.626555 L 56.122172,92.219226 C 57.496386,92.781947 58.384527,94.69336 61.010375,94.176436 C 63.612697,93.664159 63.987156,91.634037 65.034687,90.626555 z"
             id="path6600"
             sodipodi:nodetypes="ccsc" />
          <path
             sodipodi:type="arc"
             style="fill:#000000;fill-opacity:1;fill-rule:nonzero;stroke:#000000;stroke-width:0.60616291;stroke-linecap:round;stroke-linejoin:round;stroke-miterlimit:4;stroke-dashoffset:0;stroke-opacity:1"
             id="path6602"
             sodipodi:cx="76.961555"
             sodipodi:cy="92.002968"
             sodipodi:rx="1.2616649"
             sodipodi:ry="1.2616649"
             d="M 78.22322,92.002968 A 1.2616649,1.2616649 0 1 1 75.699891,92.002968 A 1.2616649,1.2616649 0 1 1 78.22322,92.002968 z"
             transform="matrix(-0.7460743,0.1170353,9.4444309e-2,0.6020619,120.96064,26.19038)" />
          <path
             sodipodi:type="arc"
             style="fill:#000000;fill-opacity:1;fill-rule:nonzero;stroke:#000000;stroke-width:0.60616291;stroke-linecap:round;stroke-linejoin:round;stroke-miterlimit:4;stroke-dashoffset:0;stroke-opacity:1"
             id="path6604"
             sodipodi:cx="76.961555"
             sodipodi:cy="92.002968"
             sodipodi:rx="1.2616649"
             sodipodi:ry="1.2616649"
             d="M 78.22322,92.002968 A 1.2616649,1.2616649 0 1 1 75.699891,92.002968 A 1.2616649,1.2616649 0 1 1 78.22322,92.002968 z"
             transform="matrix(-0.7460743,0.1170353,9.4444309e-2,0.6020619,110.87148,27.967622)" />
          <path
             style="font-size:12px;fill:#a78241;fill-opacity:1;fill-rule:evenodd;stroke:none;stroke-width:0.33032498;stroke-miterlimit:4;stroke-dasharray:none"
             d="M 62.318234,118.32532 C 62.915575,119.30694 62.944368,120.53133 63.273269,121.93477 C 63.4602,122.73254 64.32038,123.51818 65.267166,124.44629 L 66.528262,123.04595 L 65.115589,118.41435 L 63.717771,118.20991 L 64.042153,115.19173 L 62.96102,116.15959 L 63.327351,113.40784 L 62.11026,113.588 L 61.659717,111.52793 L 60.516213,112.21496 L 60.139277,108.68554 L 58.423647,110.04329 C 57.537733,108.34579 57.747602,108.37158 56.326801,107.56082 C 57.590145,107.63562 54.077508,108.5939 55.260596,108.14454 C 53.316444,106.25141 55.703497,105.70663 53.759344,103.8135 L 51.95207,104.7803 L 52.553401,100.48269 L 52.582072,101.84896 C 47.963866,101.32643 52.708772,101.13967 49.907891,96.71743 L 50.008177,93.115455 L 46.681031,94.161454 L 48.303156,95.120216 L 46.064483,96.267798 C 46.064483,96.267798 47.697502,96.420202 48.412289,97.584979 L 48.561545,100.31182 L 49.912254,100.37326 L 48.014682,103.7488 L 49.820022,102.39933 C 48.975402,104.18295 47.646583,106.30894 48.585844,108.3559 L 49.7961,107.49996 L 49.542113,110.22144 L 51.046479,106.90611 L 50.368672,110.36328 L 51.519956,107.37023 L 51.718147,112.16863 L 52.204808,108.33845 C 52.888687,110.4693 52.806355,112.85149 54.256566,114.73083 L 55.106871,109.7719 C 55.972152,111.9196 55.476154,114.81234 57.702877,116.21514 L 57.504842,111.41671 L 58.388958,115.43945 L 58.531898,112.86915 L 59.781024,114.01906 L 62.318234,118.32532 z"
             id="path6606"
             sodipodi:nodetypes="cccccccccccccccccccccccccccccccccccccccccccccc" />
          <path
             style="font-size:12px;fill:none;fill-opacity:1;fill-rule:evenodd;stroke:#000000;stroke-width:0.31731474;stroke-miterlimit:4;stroke-dasharray:none"
             d="M 62.318234,118.32532 C 62.915575,119.30694 62.944368,120.53133 63.273269,121.93477 C 63.4602,122.73254 64.32038,123.51818 65.267166,124.44629 L 66.528262,123.04595 L 66.944156,119.62902 L 66.933444,120.43551 L 68.245254,118.49095 L 68.425834,119.67041 L 69.737796,117.72583 L 70.644454,118.39186 L 70.314069,115.35742 L 71.461504,117.59611 L 69.530277,111.98997 L 70.507854,112.24272 C 69.621941,110.54522 68.332384,109.71422 66.911583,108.90346 C 68.174927,108.97826 69.45835,109.18419 70.641438,108.73482 C 68.69729,106.84171 65.30085,105.97563 63.356693,104.0825 L 66.05813,104.20553 L 63.509121,102.44965 L 66.301527,102.29035 C 61.683325,101.76782 55.584836,99.45999 52.783951,95.037747 L 50.008177,93.115455 L 46.681031,94.161454 L 48.303156,95.120216 L 46.064483,96.267798 C 46.064483,96.267798 47.697502,96.420202 48.412289,97.584979 L 48.561545,100.31182 L 49.912254,100.37326 L 48.014682,103.7488 L 49.820022,102.39933 C 48.975402,104.18295 47.646583,106.30894 48.585844,108.3559 L 49.7961,107.49996 L 49.542113,110.22144 L 51.046479,106.90611 L 50.368672,110.36328 L 51.519956,107.37023 L 51.718147,112.16863 L 52.204808,108.33845 C 52.888687,110.4693 52.806355,112.85149 54.256566,114.73083 L 55.106871,109.7719 C 55.972152,111.9196 55.476154,114.81234 57.702877,116.21514 L 57.504842,111.41671 L 58.388958,115.43945 L 58.531898,112.86915 L 59.781024,114.01906 L 62.318234,118.32532 z"
             id="path6608"
             sodipodi:nodetypes="cccccccccccccccccccccccccccccccccccccccccccccc" />
        </g>
      </g>
      <text
         sodipodi:linespacing="125%"
         transform="matrix(-0.8492528,6.2668856e-2,0,1.1775057,0,0)"
         id="text3633"
         y="555.90125"
         x="-895.69794"
         style="font-size:22.59059143px;font-style:normal;font-variant:normal;font-weight:bold;font-stretch:normal;text-align:start;line-height:125%;writing-mode:lr-tb;text-anchor:start;fill:#ffffff;fill-opacity:1;stroke:none;stroke-width:1px;stroke-linecap:butt;stroke-linejoin:miter;stroke-opacity:1;font-family:Bitstream Vera Sans;-inkscape-font-specification:Bitstream Vera Sans Bold"
         xml:space="preserve"><tspan
           y="555.90125"
           x="-895.69794"
           id="tspan3771"
           sodipodi:role="line">1.1 - 1.0 = 0.2</tspan><tspan
           y="584.13947"
           x="-895.69794"
           id="tspan3773"
           sodipodi:role="line" /></text>
      <text
         sodipodi:linespacing="125%"
         transform="matrix(-0.8492528,6.2668856e-2,0,1.1775057,0,0)"
         id="text3775"
         y="575.62244"
         x="-890.14581"
         style="font-size:12.8217411px;font-style:normal;font-variant:normal;font-weight:bold;font-stretch:normal;text-align:start;line-height:125%;writing-mode:lr-tb;text-anchor:start;fill:#ffffff;fill-opacity:1;stroke:none;stroke-width:1px;stroke-linecap:butt;stroke-linejoin:miter;stroke-opacity:1;font-family:Bitstream Vera Sans;-inkscape-font-specification:Bitstream Vera Sans Bold"
         xml:space="preserve"><tspan
           y="575.62244"
           x="-890.14581"
           id="tspan3781"
           sodipodi:role="line">(Uniquement pour des</tspan><tspan
           y="591.6496"
           x="-890.14581"
           id="tspan3783"
           sodipodi:role="line">grandes valeurs de 0.1)</tspan></text>
    </g>
  </g>
</svg>
