<?xml version="1.0" encoding="UTF-8" standalone="no"?>
<!-- Created with Inkscape (http://www.inkscape.org/) -->
<svg
   xmlns:dc="http://purl.org/dc/elements/1.1/"
   xmlns:cc="http://creativecommons.org/ns#"
   xmlns:rdf="http://www.w3.org/1999/02/22-rdf-syntax-ns#"
   xmlns:svg="http://www.w3.org/2000/svg"
   xmlns="http://www.w3.org/2000/svg"
   xmlns:sodipodi="http://sodipodi.sourceforge.net/DTD/sodipodi-0.dtd"
   xmlns:inkscape="http://www.inkscape.org/namespaces/inkscape"
   width="86.815598"
   height="123.11202"
   id="svg4405"
   sodipodi:version="0.32"
   inkscape:version="0.46"
   version="1.0"
   sodipodi:docname="vert_content.svg"
   inkscape:output_extension="org.inkscape.output.svg.inkscape">
  <defs
     id="defs4407">
    <inkscape:perspective
       sodipodi:type="inkscape:persp3d"
       inkscape:vp_x="0 : 526.18109 : 1"
       inkscape:vp_y="0 : 1000 : 0"
       inkscape:vp_z="744.09448 : 526.18109 : 1"
       inkscape:persp3d-origin="372.04724 : 350.78739 : 1"
       id="perspective4413" />
  </defs>
  <sodipodi:namedview
     id="base"
     pagecolor="#ffffff"
     bordercolor="#666666"
     borderopacity="1.0"
     inkscape:pageopacity="0.0"
     inkscape:pageshadow="2"
     inkscape:zoom="0.35"
     inkscape:cx="375"
     inkscape:cy="520"
     inkscape:document-units="px"
     inkscape:current-layer="layer1"
     showgrid="false"
     inkscape:window-width="645"
     inkscape:window-height="726"
     inkscape:window-x="1"
     inkscape:window-y="49" />
  <metadata
     id="metadata4410">
    <rdf:RDF>
      <cc:Work
         rdf:about="">
        <dc:format>image/svg+xml</dc:format>
        <dc:type
           rdf:resource="http://purl.org/dc/dcmitype/StillImage" />
      </cc:Work>
    </rdf:RDF>
  </metadata>
  <g
     inkscape:label="Calque 1"
     inkscape:groupmode="layer"
     id="layer1"
     transform="translate(-262.30644,-347.94903)">
    <g
       transform="matrix(1.17259,0,0,1.17259,-1144.3703,-380.55883)"
       id="use17283">
      <path
         style="fill:#347732;fill-opacity:1;fill-rule:evenodd;stroke:#000000;stroke-width:2.89196992;stroke-linecap:butt;stroke-linejoin:miter;stroke-miterlimit:4;stroke-dasharray:none;stroke-opacity:1"
         d="M 1260.718,622.72885 C 1260.7423,622.7212 1260.7925,622.73682 1260.8557,622.77475 C 1264.273,624.72609 1270.107,626.9161 1269.4238,635.50445 C 1268.7417,644.37829 1263.1262,643.79015 1257.2755,643.62881 L 1258.5607,645.14352 C 1262.6765,646.30597 1266.623,647.69761 1270.0205,645.52602 L 1267.0217,647.85164 L 1271.5046,645.55662 L 1269.3932,648.43305 L 1272.2237,645.86263 C 1269.6755,651.20508 1263.5593,655.58075 1256.281,654.20119 C 1256.6243,656.69082 1256.5043,659.42106 1256.1433,662.18785 C 1256.7717,662.81023 1257.3477,663.46776 1257.8263,664.20746 C 1260.3162,668.05558 1261.5651,672.37983 1262.1562,677.07486 C 1262.8697,678.49421 1263.3649,679.58408 1263.3649,679.58408 L 1265.1398,694.21099 L 1265.2622,704.67627 C 1266.0824,710.84195 1266.2989,718.18395 1266.4097,723.98502 C 1248.8642,724.2669 1236.2354,724.05326 1221.7027,724.03092 L 1221.718,724.21452 L 1205.0868,724.82652 L 1205.0256,724.12272 C 1203.7044,724.13902 1202.4573,724.14646 1201.0782,724.16862 C 1201.5498,722.64441 1200.8684,695.25888 1202.6541,683.56211 C 1202.8277,680.69687 1203.1875,678.21878 1203.8628,676.92186 C 1204.8696,674.98824 1205.2204,673.23338 1206.6933,672.01052 C 1207.7009,670.14051 1208.8788,668.44321 1210.2276,667.17569 C 1212.6177,664.92962 1215.3159,663.61404 1218.1225,662.05015 L 1218.4132,659.92343 L 1217.893,660.48954 L 1217.9236,659.32673 C 1217.8531,659.32804 1217.7806,659.32651 1217.7094,659.32673 L 1216.9903,660.91794 L 1216.6078,659.29613 C 1212.8412,659.03606 1208.1527,657.43665 1202.2104,654.98149 L 1206.4791,655.67 L 1201.3842,652.16627 L 1206.4026,653.40558 L 1204.536,650.88106 C 1206.4704,652.41803 1209.1165,653.31124 1212.6757,652.31927 C 1214.5584,650.72192 1217.0244,649.07428 1220.188,648.01994 L 1220.9683,647.04073 C 1214.0003,648.40914 1206.9893,654.35027 1202.8836,644.08781 C 1199.6621,636.09729 1204.5672,632.25347 1207.2441,629.3691 C 1208.0284,628.48718 1205.5699,635.01604 1207.1064,638.01367 C 1208.8712,641.18698 1211.8141,642.07079 1214.2669,639.69668 C 1216.6175,637.31515 1218.9397,634.53072 1221.8404,633.24003 L 1223.7223,631.97012 L 1225.5584,631.75592 L 1224.1201,631.32752 L 1225.742,630.71551 L 1223.0491,630.57781 L 1225.5737,629.98111 L 1223.9977,629.9046 L 1227.7004,628.6959 L 1227.2873,627.91559 L 1229.0927,627.59429 L 1227.9605,626.98228 L 1231.5866,627.33419 L 1230.8828,626.72218 L 1233.2543,627.38009 L 1232.3822,626.47738 L 1235.5646,626.82928 L 1232.8106,625.48287 L 1235.8094,625.98777 L 1234.3559,625.00857 L 1236.5744,625.48287 L 1236.4673,624.61076 L 1238.487,626.56918 L 1238.1351,625.10037 L 1240.1088,626.40088 L 1239.4203,625.36047 L 1240.6902,626.04898 L 1239.252,624.18236 L 1241.9907,624.51896 L 1241.1951,623.49386 L 1243.4136,624.96267 L 1243.6584,624.12116 L 1244.8212,625.72767 L 1245.3414,625.60527 L 1245.6321,626.81398 L 1246.3971,626.79868 L 1246.3359,627.91559 L 1247.2845,627.68609 L 1246.3971,629.109 L 1247.7588,629.0172 L 1246.8867,630.22591 L 1248.6615,630.24121 L 1247.8506,630.80731 C 1248.6912,630.88254 1249.5335,631.07052 1250.3598,631.34282 L 1250.4669,631.34282 L 1250.4363,631.35812 C 1252.7666,632.13963 1255.026,633.54606 1257.2449,634.72414 C 1260.2956,636.25564 1262.8294,634.53156 1263.5638,630.97561 C 1264.0975,627.86309 1260.3536,622.8436 1260.718,622.72885 z"
         id="path17301" />
      <path
         style="fill:#347732;fill-opacity:1;fill-rule:evenodd;stroke:#000000;stroke-width:0.679847px;stroke-linecap:butt;stroke-linejoin:miter;stroke-opacity:1"
         d="M 1249.0195,679.59127 C 1249.0195,679.59127 1256.2063,669.58497 1257.0657,669.73351 C 1259.0375,670.07429 1263.372,679.59127 1263.372,679.59127 L 1265.1385,694.21082 L 1265.3843,715.81815 L 1250.3444,714.67819 L 1251.89,695.18545 L 1249.0195,679.59127 z"
         id="path17303"
         sodipodi:nodetypes="cscccccc" />
      <path
         style="fill:#347732;fill-opacity:1;fill-rule:evenodd;stroke:#000000;stroke-width:0.63570797px;stroke-linecap:butt;stroke-linejoin:miter;stroke-opacity:1"
         d="M 1235.2257,657.37978 C 1233.9112,658.23435 1229.3246,659.29262 1227.5189,659.17385 C 1225.9011,659.37496 1221.5383,660.22462 1220.2529,660.80805 C 1216.6943,663.02081 1213.2136,664.35879 1210.2238,667.16837 C 1206.9393,670.255 1204.6965,675.93981 1203.3487,680.26932 C 1200.6975,688.78514 1201.601,722.47529 1201.0766,724.17019 C 1226.265,723.76554 1241.2217,724.39402 1266.41,723.98935 C 1266.2793,717.14764 1266.0092,708.13553 1264.7648,701.47436 C 1264.1026,697.9299 1263.6053,692.06498 1262.6247,688.61359 C 1262.6753,685.94204 1262.656,683.47379 1262.4977,680.81259 C 1262.1314,674.65851 1260.9707,669.05619 1257.8325,664.20609 C 1256.5562,662.23354 1254.5387,660.84137 1252.8918,659.15902 C 1250.3595,659.09922 1247.7632,659.44059 1245.3611,658.56412 C 1240.9007,657.53274 1239.7822,658.06163 1235.2257,657.37978 z"
         id="path17305"
         sodipodi:nodetypes="cccssccscssccc" />
      <path
         style="fill:#347732;fill-opacity:1;fill-rule:evenodd;stroke:#000000;stroke-width:0.71152598px;stroke-linecap:butt;stroke-linejoin:miter;stroke-opacity:1"
         d="M 1221.9426,680.64072 C 1222.391,676.29559 1221.3421,670.35069 1215.228,670.25741 C 1205.3046,670.11047 1205.8103,673.17725 1203.8614,676.92024 C 1201.4733,681.50671 1202.9885,700.67064 1202.9885,700.67064 L 1205.0912,724.82084 L 1221.7153,724.21465 L 1220.4876,701.47889 C 1220.4876,701.47889 1221.3592,686.29518 1221.9426,680.64072 z"
         id="path17307"
         sodipodi:nodetypes="cssccccs" />
      <g
         id="g17309"
         transform="matrix(0.584433,-4.6932e-2,0.135192,0.577346,1129.64,493.107)">
        <path
           sodipodi:nodetypes="ccccccccccccccccccccccccc"
           id="path17311"
           d="M 144.68792,367.90774 C 144.76252,372.25541 142.47783,374.84585 139.99198,374.8351 C 137.43995,374.81676 138.41137,370.38024 136.37391,370.25126 C 132.50378,369.9973 134.28855,367.82639 132.17776,388.0938 C 115.71962,387.67125 116.99968,389.37641 117.56977,384.37781 C 117.8662,381.74669 121.25656,382.57032 121.5154,379.28844 C 121.76193,376.09234 120.77688,373.80257 116.72226,373.36404 C 112.64473,373.17263 110.91477,375.74868 110.56297,378.94145 C 110.20737,382.22028 113.73149,381.61569 113.53479,384.24998 C 113.16801,389.25501 114.72419,388.01173 98.555204,387.58733 C 100.25951,367.12088 101.66288,369.02023 97.768227,369.02819 C 95.718725,369.02769 95.855874,373.49934 93.3155,373.35634 C 90.842344,373.20997 89.273685,371.24234 89.993338,365.61624 C 90.32864,359.97795 92.15114,359.23519 94.636997,359.24594 C 97.189046,359.26427 96.217611,363.7008 98.255078,363.82979 C 102.1252,364.08376 101.20521,366.28206 102.9174,345.64017 C 118.68898,345.6797 117.09781,347.29416 117.46459,342.28912 C 117.66129,339.65485 114.13718,340.25943 114.49277,336.98061 C 114.84458,333.78784 115.67498,331.55557 120.31178,331.95114 C 124.99481,331.85083 125.69174,334.13148 125.44521,337.32759 C 125.18636,340.60948 121.796,339.78584 121.49957,342.41696 C 120.92948,347.41554 119.64923,345.71012 136.07277,346.50443 C 134.439,366.21777 132.9661,365.06082 136.86076,365.05286 C 138.91026,365.05334 138.77312,360.5817 141.31348,360.7247 C 143.78664,360.87106 145.35524,362.8387 144.68792,367.90774 z"
           style="font-size:12px;fill:#3da639;fill-opacity:1;fill-rule:evenodd;stroke:#000000;stroke-width:1.10933006;stroke-dasharray:none;stroke-opacity:1" />
        <text
           transform="matrix(0.881445,2.78703e-2,-3.58358e-2,1.13337,0,0)"
           id="text17313"
           y="317.827"
           x="134.72501"
           style="font-size:9.68982983px;font-style:normal;font-weight:bold;text-anchor:start;fill:#ffffff;fill-opacity:1;stroke:none;stroke-width:1pt;stroke-linecap:butt;stroke-linejoin:miter;stroke-opacity:1;font-family:Arial">
          <tspan
             style="fill:#ffffff;fill-opacity:1"
             id="tspan17315"
             sodipodi:role="line"
             y="317.827"
             x="134.72501">100%</tspan>
        </text>
        <text
           transform="matrix(0.881445,2.78703e-2,-3.58358e-2,1.13337,0,0)"
           id="text17317"
           y="348.54501"
           x="152.007"
           style="font-size:8.72084999px;font-style:normal;font-weight:bold;text-anchor:start;fill:#000000;fill-opacity:1;stroke:none;stroke-width:1pt;stroke-linecap:butt;stroke-linejoin:miter;stroke-opacity:1;font-family:Arial">
          <tspan
             id="tspan17319"
             sodipodi:role="line"
             y="348.54501"
             x="152.007">Libre</tspan>
        </text>
        <text
           transform="matrix(0.881445,2.78703e-2,-3.58358e-2,1.13337,0,0)"
           id="text17321"
           y="348.737"
           x="118.286"
           style="font-size:8.72084999px;font-style:normal;font-weight:normal;text-anchor:start;fill:#000000;fill-opacity:1;stroke:none;stroke-width:1pt;stroke-linecap:butt;stroke-linejoin:miter;stroke-opacity:1;font-family:Arial">
          <tspan
             id="tspan17323"
             sodipodi:role="line"
             y="348.737"
             x="118.286">Logiciel</tspan>
        </text>
      </g>
      <g
         id="g17325"
         transform="translate(1177.5,553.559)">
        <path
           style="fill-rule:evenodd;stroke:#000000;stroke-width:0.791394;stroke-miterlimit:4;stroke-dasharray:none"
           d="M 66.76315,77.720812 C 59.699711,80.476889 60.705587,92.885337 69.023156,92.482163 C 72.129172,92.318008 72.220459,90.667432 74.651894,90.295171 C 81.8686,89.05783 91.043328,93.443886 91.926706,81.951972 C 92.609923,73.363623 86.768814,71.169062 83.351561,69.217722 C 82.339301,68.610859 86.633223,74.096158 86.063975,77.41618 C 85.329516,80.972133 82.798338,82.697839 79.747598,81.166339 C 75.613442,78.971397 71.289002,75.985549 66.76315,77.720812 z"
           id="path17327"
           sodipodi:nodetypes="csssssss" />
        <path
           style="font-size:12px;fill:#b9924d;fill-opacity:1;fill-rule:evenodd;stroke:#000000;stroke-width:0.399533;stroke-miterlimit:4;stroke-dasharray:none"
           d="M 76.071838,95.827889 L 78.279701,97.831548 L 77.260885,94.525812 L 78.14744,94.893887 L 77.959853,93.473835 L 79.613398,95.094732 L 79.073585,92.195642 L 80.169558,94.099745 L 80.137484,91.971521 L 81.299647,91.868488 L 77.998262,87.971698 L 79.506356,88.324512 L 77.13181,85.330051 L 78.800347,86.356618 L 77.03551,83.928918 L 78.928569,84.902172 L 77.377822,83.372816 L 79.784142,83.511727 L 77.45255,81.693735 L 73.880416,80.645753 L 76.51137,80.731169 L 72.99273,79.907818 L 73.67702,78.795541 L 70.928537,79.212693 L 72.96047,77.779481 L 69.790942,77.635454 L 71.158263,76.680135 L 69.382016,76.660291 L 70.257652,75.455215 L 68.897993,75.557586 L 69.776005,74.13068 L 68.833082,74.355227 L 68.897856,73.232541 L 68.127054,73.250035 L 67.840126,72.045193 L 67.316284,72.16994 L 66.158572,70.563408 L 65.914148,71.396586 L 63.683792,69.934781 L 64.48212,70.962641 L 61.742935,70.6184 L 63.185033,72.489342 L 61.912651,71.795956 L 62.606174,72.848614 L 60.635441,71.546557 L 60.984739,73.013321 L 58.968899,71.057589 L 59.06376,71.920839 L 56.84842,71.451853 L 58.300311,72.434781 L 55.301689,71.930905 L 58.055886,73.267959 L 54.872708,72.918901 L 55.750822,73.816888 L 53.380846,73.163463 L 54.079339,73.772099 L 50.452105,73.41792 L 51.594659,74.031667 L 49.788487,74.351085 L 50.197624,75.139332 L 46.500646,76.35187 L 48.067211,76.421648 L 45.552607,77.020478 L 48.241892,77.155178 L 46.615492,77.763912 L 48.047363,78.197896 L 46.216245,78.412539 L 43.926227,79.954438 L 46.440826,79.355608 L 45.018998,80.358468 L 46.196401,80.188791 L 44.145804,81.341382 L 43.771698,82.094892 L 45.47803,81.356256 L 46.785189,81.266546 L 45.652716,82.089785 L 46.091768,82.538781 L 43.726865,83.766228 L 45.448135,84.020743 L 44.180967,85.208189 L 45.016721,86.393201 L 43.911886,92.911917 L 42.295371,94.95753 L 43.946873,94.453537 L 43.208375,95.072235 L 43.991838,95.107241 L 41.467153,96.594158 L 43.1935,96.404466 L 40.594111,97.577037 L 39.511416,98.609998 L 41.452279,97.926379 L 39.790833,99.318431 L 41.177929,99.098824 L 39.077431,100.04187 L 38.179327,100.92017 L 39.805844,100.31125 L 38.718185,101.78824 L 39.770989,101.09468 L 39.416825,102.39683 L 40.728923,101.86295 L 39.042704,105.47543 L 39.491832,107.36141 L 40.429795,105.25582 L 40.384967,106.92715 L 40.913783,106.35837 L 40.544593,108.99279 L 40.868975,110.35493 L 41.387862,108.34914 L 42.13132,109.61148 L 42.400695,108.88306 L 42.695123,110.58431 L 43.04447,109.72615 L 43.762978,110.88372 L 44.092158,109.47664 L 44.606066,110.23995 L 44.85312,109.18472 L 45.643991,110.87862 L 45.713735,109.3119 L 46.666734,110.52435 L 46.217601,108.63836 L 46.836279,109.37671 L 46.871168,108.59344 L 48.418032,110.43943 L 47.859164,109.02242 L 48.946848,109.87065 L 48.20339,108.60831 L 49.815067,109.33176 L 49.540581,108.17916 L 50.820361,109.36913 L 50.453584,108.29387 L 51.54635,108.6979 L 51.616128,107.13133"
           id="path17329"
           sodipodi:nodetypes="cccccccccccccccccccccccccccccccccccccccccccccccccccccccccccccccccccccccccccccccccccccccccccccccccccccccccccccccccccccccccccccccccccc" />
        <path
           style="font-size:12px;fill:#a78241;fill-opacity:1;fill-rule:evenodd;stroke:#000000;stroke-width:0.399533;stroke-miterlimit:4;stroke-dasharray:none"
           d="M 43.911886,92.911917 L 42.295371,94.95753 L 43.946873,94.453537 L 43.208375,95.072235 L 43.991838,95.107241 L 41.467153,96.594158 L 43.1935,96.404466 L 40.594111,97.577037 L 39.511416,98.609998 L 41.452279,97.926379 L 39.790833,99.318431 L 41.177929,99.098824 L 39.077431,100.04187 L 38.179327,100.92017 L 39.805844,100.31125 L 38.718185,101.78824 L 39.770989,101.09468 L 39.416825,102.39683 L 40.728923,101.86295 L 39.042704,105.47543 L 39.491832,107.36141 L 40.429795,105.25582 L 40.384967,106.92715 L 40.913783,106.35837 L 40.544593,108.99279 L 40.868975,110.35493 L 41.387862,108.34914 L 42.13132,109.61148 L 42.400695,108.88306 L 42.695123,110.58431 L 43.04447,109.72615 L 43.762978,110.88372 L 44.092158,109.47664 L 44.606066,110.23995 L 44.85312,109.18472 L 45.643991,110.87862 L 45.713735,109.3119 L 46.666734,110.52435 L 46.217601,108.63836 L 46.836279,109.37671 L 46.871168,108.59344 L 48.418032,110.43943 L 47.859164,109.02242 L 48.946848,109.87065 L 48.20339,108.60831 L 49.815067,109.33176 L 49.540581,108.17916 L 50.820361,109.36913 L 50.453584,108.29387 L 51.54635,108.6979 L 51.616128,107.13133"
           id="path17331"
           sodipodi:nodetypes="ccccccccccccccccccccccccccccccccccccccccccccccccccc" />
        <path
           style="fill:#b9924d;fill-opacity:1;fill-rule:evenodd;stroke:#000000;stroke-width:0.79906702;stroke-miterlimit:4;stroke-dasharray:none"
           d="M 49.623573,93.322391 C 42.930196,93.40813 38.250961,96.136633 35.164445,98.755327 C 31.605271,99.747294 28.965005,98.854844 27.030595,97.31788 L 28.893679,99.849435 L 23.874546,98.605915 L 28.972716,102.11766 L 24.709183,101.42896 C 39.553145,107.56193 46.598758,108.31636 50.891564,96.347476"
           id="path17333"
           sodipodi:nodetypes="cccccccc" />
        <path
           style="fill:#7c5521;fill-opacity:1;fill-rule:evenodd;stroke:#000000;stroke-width:0.39953399;stroke-miterlimit:4;stroke-dasharray:none"
           d="M 49.136912,97.15258 C 43.402478,99.997849 40.620985,103.73233 32.025826,103.66218 C 38.048872,105.91448 43.77232,104.45696 48.802821,99.349873 C 48.914152,98.617548 49.025606,97.885047 49.136912,97.15258 z"
           id="path17335"
           sodipodi:nodetypes="cccc" />
        <path
           style="fill:#b9924d;fill-opacity:1;fill-rule:evenodd;stroke:#000000;stroke-width:0.79906702;stroke-miterlimit:4;stroke-dasharray:none"
           d="M 73.920666,90.518157 C 80.503541,90.002129 87.182886,95.37316 92.517848,91.963178 L 89.522453,94.299542 L 93.999673,92.004535 L 91.890729,94.875982 L 94.715165,92.297416 C 91.770502,98.471088 84.068968,103.36125 75.305182,99.561254"
           id="path17337"
           sodipodi:nodetypes="ccccccc" />
        <path
           style="fill:#7c5521;fill-opacity:1;fill-rule:evenodd;stroke:#000000;stroke-width:0.79906702;stroke-miterlimit:4;stroke-dasharray:none"
           d="M 77.112251,95.965894 C 75.890117,91.291324 73.370538,86.217698 69.098604,82.573299 C 65.745386,79.585232 60.603867,79.331495 56.373147,81.008133 C 50.056388,83.582925 48.282045,86.020422 49.2849,93.878375 C 50.596338,106.57029 57.83504,108.604 61.614267,116.61305 C 64.069771,121.38978 66.78293,128.99126 71.841133,128.1279 C 76.866083,127.27347 77.207704,117.5426 78.025822,111.98442 C 78.810658,106.6531 78.269733,101.23037 77.112251,95.965894 z"
           id="path17339"
           sodipodi:nodetypes="csssssss" />
        <path
           inkscape:transform-center-y="-3.7941137"
           inkscape:transform-center-x="5.2939336"
           style="fill:#7c5521;fill-opacity:1;fill-rule:evenodd;stroke:#000000;stroke-width:0.79906702;stroke-miterlimit:4;stroke-dasharray:none"
           d="M 64.763972,80.6762 C 66.743705,79.491544 71.44363,81.123282 74.673684,83.147327 C 75.347643,83.951419 74.980727,86.017451 74.184997,87.213944 C 72.318782,85.875288 69.999428,85.051411 67.741723,85.194939"
           id="path17341"
           sodipodi:nodetypes="cccc" />
        <path
           style="fill:#7c5521;fill-opacity:1;fill-rule:evenodd;stroke:#000000;stroke-width:0.79906702;stroke-miterlimit:4;stroke-dasharray:none"
           d="M 76.81346,116.25011 C 77.749211,117.63989 79.662686,119.2824 79.569994,120.96368 C 78.493403,122.34686 77.850284,123.93189 77.035922,125.27491 C 74.848979,124.73503 69.536858,124.80735 67.721686,125.82023"
           id="path17343"
           sodipodi:nodetypes="cccc" />
        <path
           style="fill:none;fill-rule:evenodd;stroke:#000000;stroke-width:0.39953399;stroke-miterlimit:4;stroke-dasharray:none"
           d="M 71.482337,124.52796 C 70.375049,123.15859 67.965391,123.33515 68.76462,124.36696"
           id="path17345"
           sodipodi:nodetypes="cc" />
        <path
           style="fill:none;fill-rule:evenodd;stroke:#000000;stroke-width:0.39953399;stroke-miterlimit:4;stroke-dasharray:none"
           d="M 75.24146,123.95243 C 75.401189,122.90198 76.905555,121.8382 77.671413,122.23387"
           id="path17347"
           sodipodi:nodetypes="cc" />
        <path
           style="fill:none;fill-rule:evenodd;stroke:#000000;stroke-width:0.39953399;stroke-miterlimit:4;stroke-dasharray:none"
           d="M 50.781403,97.289356 L 50.920622,99.950646 L 51.839231,98.066279 L 51.694906,102.38051 L 52.281891,99.205621 L 53.659543,103.82344 L 53.44022,100.63796 L 56.177913,106.25467 L 55.494446,103.54251 L 58.093066,106.49791 L 58.254826,105.8025 L 59.574759,106.53944 L 59.323396,105.77309 L 60.845192,106.07655"
           id="path17349" />
        <path
           style="fill:#7c5521;fill-opacity:1;fill-rule:evenodd;stroke:#000000;stroke-width:0.39953399;stroke-miterlimit:4;stroke-dasharray:none"
           d="M 91.153597,95.317183 C 86.186322,96.748324 82.620475,97.696682 78.129148,96.104143 L 81.464545,97.739478 L 77.987437,96.930521 L 79.82096,98.39353 L 77.825677,97.625939 L 76.474973,97.564508 L 76.877505,98.441751 C 85.030584,101.17278 86.796212,98.979919 91.153597,95.317183 z"
           id="path17351"
           sodipodi:nodetypes="ccccccccc" />
        <path
           style="font-size:12px;fill:#b9924d;fill-opacity:1;fill-rule:evenodd;stroke:none;stroke-width:0.33032501;stroke-miterlimit:4;stroke-dasharray:none"
           d="M 62.318234,118.32532 C 62.915575,119.30694 62.944368,120.53133 63.273269,121.93477 C 63.4602,122.73254 64.32038,123.51818 65.267166,124.44629 L 66.528262,123.04595 L 66.944156,119.62902 L 66.933444,120.43551 L 68.245254,118.49095 L 68.425834,119.67041 L 69.737796,117.72583 L 70.644454,118.39186 L 70.314069,115.35742 L 71.461504,117.59611 L 69.530277,111.98997 L 70.507854,112.24272 C 69.621941,110.54522 68.332384,109.71422 66.911583,108.90346 C 68.174927,108.97826 69.45835,109.18419 70.641438,108.73482 C 68.69729,106.84171 65.30085,105.97563 63.356693,104.0825 L 66.05813,104.20553 L 63.509121,102.44965 L 66.301527,102.29035 C 61.683325,101.76782 55.584836,99.45999 52.783951,95.037747 L 50.008177,93.115455 L 46.681031,94.161454 L 48.303156,95.120216 L 46.064483,96.267798 C 46.064483,96.267798 47.697502,96.420202 48.412289,97.584979 L 48.561545,100.31182 L 49.912254,100.37326 L 48.014682,103.7488 L 49.820022,102.39933 C 48.975402,104.18295 47.646583,106.30894 48.585844,108.3559 L 49.7961,107.49996 L 49.542113,110.22144 L 51.046479,106.90611 L 50.368672,110.36328 L 51.519956,107.37023 L 51.718147,112.16863 L 52.204808,108.33845 C 52.888687,110.4693 52.806355,112.85149 54.256566,114.73083 L 55.106871,109.7719 C 55.972152,111.9196 55.476154,114.81234 57.702877,116.21514 L 57.504842,111.41671 L 58.388958,115.43945 L 58.531898,112.86915 L 59.781024,114.01906 L 62.318234,118.32532 z"
           id="path17353"
           sodipodi:nodetypes="cccccccccccccccccccccccccccccccccccccccccccccc" />
        <path
           style="fill:#7c5521;fill-opacity:1;fill-rule:evenodd;stroke:#000000;stroke-width:0.79906702;stroke-miterlimit:4;stroke-dasharray:none"
           d="M 71.390233,92.895912 C 73.370151,93.682788 77.802494,96.074125 78.498334,99.117404 C 79.743182,104.56148 78.35299,111.51438 76.88033,117.44714 C 75.450585,122.90336 72.428991,122.29643 71.297375,121.18733"
           id="path17355"
           sodipodi:nodetypes="csss" />
        <path
           style="fill-rule:evenodd;stroke:#000000;stroke-width:0.791394;stroke-miterlimit:4;stroke-dasharray:none"
           d="M 48.117068,78.966212 C 55.681548,79.482705 58.434266,91.623711 50.377074,93.727558 C 47.364219,94.500221 46.783275,92.952559 44.351844,93.32482 C 37.095511,94.303346 29.653329,101.2335 25.372122,90.532296 C 22.150627,82.541773 27.06758,78.700117 29.744469,75.815749 C 30.528789,74.933821 28.072722,81.452566 29.609216,84.450194 C 31.373948,87.623512 34.305494,88.512862 36.758282,86.138754 C 40.046352,82.807447 43.279357,78.664533 48.117068,78.966212 z"
           id="path17357"
           sodipodi:nodetypes="csssssss" />
        <path
           inkscape:transform-center-y="-4.1303451"
           inkscape:transform-center-x="-1.3354989"
           style="fill:#7c5521;fill-opacity:1;fill-rule:evenodd;stroke:#000000;stroke-width:0.79906797;stroke-miterlimit:4;stroke-dasharray:none"
           d="M 60.233975,81.189148 C 56.072012,81.716193 53.30236,85.257863 51.608399,87.415419 C 51.380736,89.467444 52.787756,90.020821 54.605316,90.684547 C 56.138372,88.68935 56.591688,87.108703 60.02982,85.888675"
           id="path17359"
           sodipodi:nodetypes="cccc" />
        <path
           style="fill:#b9924d;fill-opacity:1;fill-rule:evenodd;stroke:#000000;stroke-width:0.39953399;stroke-miterlimit:4;stroke-dasharray:none"
           d="M 52.015537,78.946373 L 52.990647,80.180091 L 55.122597,79.603921 L 53.85418,81.04693 L 58.036669,81.780204 L 56.594972,82.000927 L 59.678868,82.870077 L 56.675243,82.525254 L 60.192472,83.596286 C 62.66832,84.290304 64.629476,86.001998 66.408652,88.278009 L 64.431461,82.28926 L 65.356254,82.259551 L 63.170443,80.310791 L 64.694432,80.064692 L 62.79945,79.181251 L 63.709986,78.317644 L 62.546433,77.359773"
           id="path17361"
           sodipodi:nodetypes="ccccccccccccccccc" />
        <path
           style="font-size:12px;fill:#a78241;fill-opacity:1;fill-rule:evenodd;stroke:none;stroke-width:0.33032501;stroke-miterlimit:4;stroke-dasharray:none"
           d="M 62.318234,118.32532 C 62.915575,119.30694 62.944368,120.53133 63.273269,121.93477 C 63.4602,122.73254 64.32038,123.51818 65.267166,124.44629 L 66.528262,123.04595 L 65.115589,118.41435 L 63.717771,118.20991 L 64.042153,115.19173 L 62.96102,116.15959 L 63.327351,113.40784 L 62.11026,113.588 L 61.659717,111.52793 L 60.516213,112.21496 L 60.139277,108.68554 L 58.423647,110.04329 C 57.537733,108.34579 57.747602,108.37158 56.326801,107.56082 C 57.590145,107.63562 54.077508,108.5939 55.260596,108.14454 C 53.316444,106.25141 55.703497,105.70663 53.759344,103.8135 L 51.95207,104.7803 L 52.553401,100.48269 L 52.582072,101.84896 C 47.963866,101.32643 52.708772,101.13967 49.907891,96.71743 L 50.008177,93.115455 L 46.681031,94.161454 L 48.303156,95.120216 L 46.064483,96.267798 C 46.064483,96.267798 47.697502,96.420202 48.412289,97.584979 L 48.561545,100.31182 L 49.912254,100.37326 L 48.014682,103.7488 L 49.820022,102.39933 C 48.975402,104.18295 47.646583,106.30894 48.585844,108.3559 L 49.7961,107.49996 L 49.542113,110.22144 L 51.046479,106.90611 L 50.368672,110.36328 L 51.519956,107.37023 L 51.718147,112.16863 L 52.204808,108.33845 C 52.888687,110.4693 52.806355,112.85149 54.256566,114.73083 L 55.106871,109.7719 C 55.972152,111.9196 55.476154,114.81234 57.702877,116.21514 L 57.504842,111.41671 L 58.388958,115.43945 L 58.531898,112.86915 L 59.781024,114.01906 L 62.318234,118.32532 z"
           id="path17371"
           sodipodi:nodetypes="cccccccccccccccccccccccccccccccccccccccccccccc" />
        <path
           style="font-size:12px;fill:none;fill-opacity:1;fill-rule:evenodd;stroke:#000000;stroke-width:0.39953399;stroke-miterlimit:4;stroke-dasharray:none"
           d="M 62.318234,118.32532 C 62.915575,119.30694 62.944368,120.53133 63.273269,121.93477 C 63.4602,122.73254 64.32038,123.51818 65.267166,124.44629 L 66.528262,123.04595 L 66.944156,119.62902 L 66.933444,120.43551 L 68.245254,118.49095 L 68.425834,119.67041 L 69.737796,117.72583 L 70.644454,118.39186 L 70.314069,115.35742 L 71.461504,117.59611 L 69.530277,111.98997 L 70.507854,112.24272 C 69.621941,110.54522 68.332384,109.71422 66.911583,108.90346 C 68.174927,108.97826 69.45835,109.18419 70.641438,108.73482 C 68.69729,106.84171 65.30085,105.97563 63.356693,104.0825 L 66.05813,104.20553 L 63.509121,102.44965 L 66.301527,102.29035 C 61.683325,101.76782 55.584836,99.45999 52.783951,95.037747 L 50.008177,93.115455 L 46.681031,94.161454 L 48.303156,95.120216 L 46.064483,96.267798 C 46.064483,96.267798 47.697502,96.420202 48.412289,97.584979 L 48.561545,100.31182 L 49.912254,100.37326 L 48.014682,103.7488 L 49.820022,102.39933 C 48.975402,104.18295 47.646583,106.30894 48.585844,108.3559 L 49.7961,107.49996 L 49.542113,110.22144 L 51.046479,106.90611 L 50.368672,110.36328 L 51.519956,107.37023 L 51.718147,112.16863 L 52.204808,108.33845 C 52.888687,110.4693 52.806355,112.85149 54.256566,114.73083 L 55.106871,109.7719 C 55.972152,111.9196 55.476154,114.81234 57.702877,116.21514 L 57.504842,111.41671 L 58.388958,115.43945 L 58.531898,112.86915 L 59.781024,114.01906 L 62.318234,118.32532 z"
           id="path17373"
           sodipodi:nodetypes="cccccccccccccccccccccccccccccccccccccccccccccc" />
        <path
           style="opacity:1;fill:none;fill-opacity:1;stroke:#000000;stroke-width:1.19394004;stroke-linecap:round;stroke-linejoin:round;stroke-miterlimit:4;stroke-dasharray:none;stroke-opacity:1"
           d="M 59.282822,94.902956 C 59.282822,94.902956 57.969452,92.705219 60.320571,91.205596 C 62.693948,89.691783 64.347715,92.725614 64.296922,92.737799"
           id="path17375"
           sodipodi:nodetypes="czc" />
        <path
           style="opacity:1;fill:none;fill-opacity:1;stroke:#000000;stroke-width:1.19394004;stroke-linecap:round;stroke-linejoin:round;stroke-miterlimit:4;stroke-dasharray:none;stroke-opacity:1"
           d="M 74.307435,92.894957 C 74.307435,92.894957 75.071911,90.451483 72.43584,89.541671 C 69.774814,88.623253 68.874366,91.959159 68.9266,91.959159"
           id="path17377"
           sodipodi:nodetypes="czc" />
      </g>
    </g>
  </g>
</svg>
